# Exported from Wings 3D 2.1.5
mtllib untitled.mtl
o Cylinder1
#96 vertices, 98 faces
v 0.96193977 0.80490968 0.19134172
v 0.96193977 0.80490968 0.19134172
v 0.96193977 -0.80490968 0.19134172
v 0.96193977 -0.80490968 0.19134172
v 0.19134172 0.80490968 -0.96193977
v 0.19134172 0.80490968 -0.96193977
v 0.19134172 -0.80490968 -0.96193977
v 0.19134172 -0.80490968 -0.96193977
v 0.74010847 1.00000000 0.30656296
v 0.80108763 1.00000000 2.8145443e-17
v 0.74010847 1.00000000 -0.30656296
v 0.56645450 1.00000000 -0.56645450
v 0.30656296 1.00000000 -0.74010847
v -1.5273703e-16 1.00000000 -0.80108763
v -0.30656296 1.00000000 -0.74010847
v -0.56645450 1.00000000 -0.56645450
v -0.74010847 1.00000000 -0.30656296
v -0.80108763 1.00000000 9.9948325e-17
v -0.74010847 1.00000000 0.30656296
v -0.56645450 1.00000000 0.56645450
v -0.30656296 1.00000000 0.74010847
v 6.1232340e-17 1.00000000 0.80108763
v 0.30656296 1.00000000 0.74010847
v 0.56645450 1.00000000 0.56645450
v 0.81549316 0.80490968 0.54489511
v 0.81549316 0.80490968 0.54489511
v 0.81549316 -0.80490968 0.54489511
v 0.81549316 -0.80490968 0.54489511
v 0.80108763 -1.00000000 2.8145443e-17
v 0.74010847 -1.00000000 0.30656296
v 0.56645450 -1.00000000 0.56645450
v 0.30656296 -1.00000000 0.74010847
v 6.1232340e-17 -1.00000000 0.80108763
v -0.30656296 -1.00000000 0.74010847
v -0.56645450 -1.00000000 0.56645450
v -0.74010847 -1.00000000 0.30656296
v -0.80108763 -1.00000000 9.9948325e-17
v -0.74010847 -1.00000000 -0.30656296
v -0.56645450 -1.00000000 -0.56645450
v -0.30656296 -1.00000000 -0.74010847
v -1.5273703e-16 -1.00000000 -0.80108763
v 0.30656296 -1.00000000 -0.74010847
v 0.56645450 -1.00000000 -0.56645450
v 0.74010847 -1.00000000 -0.30656296
v 0.96193977 0.80490968 -0.19134172
v 0.96193977 0.80490968 -0.19134172
v 0.96193977 -0.80490968 -0.19134172
v 0.96193977 -0.80490968 -0.19134172
v -0.54489511 0.80490968 0.81549316
v -0.54489511 0.80490968 0.81549316
v -0.54489511 -0.80490968 0.81549316
v -0.54489511 -0.80490968 0.81549316
v 0.54489511 0.80490968 -0.81549316
v 0.54489511 0.80490968 -0.81549316
v 0.54489511 -0.80490968 -0.81549316
v 0.54489511 -0.80490968 -0.81549316
v -0.81549316 0.80490968 -0.54489511
v -0.81549316 0.80490968 -0.54489511
v -0.81549316 -0.80490968 -0.54489511
v -0.81549316 -0.80490968 -0.54489511
v 0.19134172 0.80490968 0.96193977
v 0.19134172 0.80490968 0.96193977
v 0.19134172 -0.80490968 0.96193977
v 0.19134172 -0.80490968 0.96193977
v -0.81549316 0.80490968 0.54489511
v -0.81549316 0.80490968 0.54489511
v -0.81549316 -0.80490968 0.54489511
v -0.81549316 -0.80490968 0.54489511
v -0.96193977 0.80490968 0.19134172
v -0.96193977 0.80490968 0.19134172
v -0.96193977 -0.80490968 0.19134172
v -0.96193977 -0.80490968 0.19134172
v 0.54489511 0.80490968 0.81549316
v 0.54489511 0.80490968 0.81549316
v 0.54489511 -0.80490968 0.81549316
v 0.54489511 -0.80490968 0.81549316
v -0.19134172 0.80490968 0.96193977
v -0.19134172 0.80490968 0.96193977
v -0.19134172 -0.80490968 0.96193977
v -0.19134172 -0.80490968 0.96193977
v -0.96193977 0.80490968 -0.19134172
v -0.96193977 0.80490968 -0.19134172
v -0.96193977 -0.80490968 -0.19134172
v -0.96193977 -0.80490968 -0.19134172
v 0.81549316 0.80490968 -0.54489511
v 0.81549316 0.80490968 -0.54489511
v 0.81549316 -0.80490968 -0.54489511
v 0.81549316 -0.80490968 -0.54489511
v -0.54489511 0.80490968 -0.81549316
v -0.54489511 0.80490968 -0.81549316
v -0.54489511 -0.80490968 -0.81549316
v -0.54489511 -0.80490968 -0.81549316
v -0.19134172 0.80490968 -0.96193977
v -0.19134172 0.80490968 -0.96193977
v -0.19134172 -0.80490968 -0.96193977
v -0.19134172 -0.80490968 -0.96193977
vn 0.87703638 0.47791037 4.9080268e-2
vn 0.82905816 0.47791037 0.29028304
vn 0.82905816 -0.47791037 0.29028304
vn 0.87703638 -0.47791037 4.9080268e-2
vn 4.9080268e-2 0.47791037 -0.87703638
vn 0.29028304 0.47791037 -0.82905816
vn 0.29028304 -0.47791037 -0.82905816
vn 4.9080268e-2 -0.47791037 -0.87703638
vn 0.53367677 0.81628627 0.22105616
vn 0.57764758 0.81628627 -8.1702111e-17
vn 0.53367677 0.81628627 -0.22105616
vn 0.40845852 0.81628627 -0.40845852
vn 0.22105616 0.81628627 -0.53367677
vn -1.3369436e-16 0.81628627 -0.57764758
vn -0.22105616 0.81628627 -0.53367677
vn -0.40845852 0.81628627 -0.40845852
vn -0.53367677 0.81628627 -0.22105616
vn -0.57764758 0.81628627 1.3369436e-16
vn -0.53367677 0.81628627 0.22105616
vn -0.40845852 0.81628627 0.40845852
vn -0.22105616 0.81628627 0.53367677
vn 0.0000000e+0 0.81628627 0.57764758
vn 0.22105616 0.81628627 0.53367677
vn 0.40845852 0.81628627 0.40845852
vn 0.79149375 0.47791037 0.38097155
vn 0.65486336 0.47791037 0.58545338
vn 0.65486336 -0.47791037 0.58545338
vn 0.79149375 -0.47791037 0.38097155
vn 0.57764758 -0.81628627 -5.1992252e-17
vn 0.53367677 -0.81628627 0.22105616
vn 0.40845852 -0.81628627 0.40845852
vn 0.22105616 -0.81628627 0.53367677
vn 0.0000000e+0 -0.81628627 0.57764758
vn -0.22105616 -0.81628627 0.53367677
vn -0.40845852 -0.81628627 0.40845852
vn -0.53367677 -0.81628627 0.22105616
vn -0.57764758 -0.81628627 1.6340422e-16
vn -0.53367677 -0.81628627 -0.22105616
vn -0.40845852 -0.81628627 -0.40845852
vn -0.22105616 -0.81628627 -0.53367677
vn -1.3369436e-16 -0.81628627 -0.57764758
vn 0.22105616 -0.81628627 -0.53367677
vn 0.40845852 -0.81628627 -0.40845852
vn 0.53367677 -0.81628627 -0.22105616
vn 0.82905816 0.47791037 -0.29028304
vn 0.87703638 0.47791037 -4.9080268e-2
vn 0.87703638 -0.47791037 -4.9080268e-2
vn 0.82905816 -0.47791037 -0.29028304
vn -0.38097155 0.47791037 0.79149375
vn -0.58545338 0.47791037 0.65486336
vn -0.58545338 -0.47791037 0.65486336
vn -0.38097155 -0.47791037 0.79149375
vn 0.38097155 0.47791037 -0.79149375
vn 0.58545338 0.47791037 -0.65486336
vn 0.58545338 -0.47791037 -0.65486336
vn 0.38097155 -0.47791037 -0.79149375
vn -0.79149375 0.47791037 -0.38097155
vn -0.65486336 0.47791037 -0.58545338
vn -0.65486336 -0.47791037 -0.58545338
vn -0.79149375 -0.47791037 -0.38097155
vn 0.29028304 0.47791037 0.82905816
vn 4.9080268e-2 0.47791037 0.87703638
vn 4.9080268e-2 -0.47791037 0.87703638
vn 0.29028304 -0.47791037 0.82905816
vn -0.65486336 0.47791037 0.58545338
vn -0.79149375 0.47791037 0.38097155
vn -0.79149375 -0.47791037 0.38097155
vn -0.65486336 -0.47791037 0.58545338
vn -0.82905816 0.47791037 0.29028304
vn -0.87703638 0.47791037 4.9080268e-2
vn -0.87703638 -0.47791037 4.9080268e-2
vn -0.82905816 -0.47791037 0.29028304
vn 0.58545338 0.47791037 0.65486336
vn 0.38097155 0.47791037 0.79149375
vn 0.38097155 -0.47791037 0.79149375
vn 0.58545338 -0.47791037 0.65486336
vn -4.9080268e-2 0.47791037 0.87703638
vn -0.29028304 0.47791037 0.82905816
vn -0.29028304 -0.47791037 0.82905816
vn -4.9080268e-2 -0.47791037 0.87703638
vn -0.87703638 0.47791037 -4.9080268e-2
vn -0.82905816 0.47791037 -0.29028304
vn -0.82905816 -0.47791037 -0.29028304
vn -0.87703638 -0.47791037 -4.9080268e-2
vn 0.65486336 0.47791037 -0.58545338
vn 0.79149375 0.47791037 -0.38097155
vn 0.79149375 -0.47791037 -0.38097155
vn 0.65486336 -0.47791037 -0.58545338
vn -0.58545338 0.47791037 -0.65486336
vn -0.38097155 0.47791037 -0.79149375
vn -0.38097155 -0.47791037 -0.79149375
vn -0.58545338 -0.47791037 -0.65486336
vn -0.29028304 0.47791037 -0.82905816
vn -4.9080268e-2 0.47791037 -0.87703638
vn -4.9080268e-2 -0.47791037 -0.87703638
vn -0.29028304 -0.47791037 -0.82905816
g Cylinder1_default
usemtl default
s 1
f 1//1 10//10 9//9 2//2
f 2//2 3//3 4//4 1//1
f 2//2 25//25 28//28 3//3
f 3//3 30//30 29//29 4//4
f 4//4 47//47 46//46 1//1
f 5//5 14//14 13//13 6//6
f 6//6 7//7 8//8 5//5
f 6//6 53//53 56//56 7//7
f 7//7 42//42 41//41 8//8
f 8//8 95//95 94//94 5//5
f 9//9 25//25 2//2
f 10//10 1//1 46//46
f 10//10 11//11 12//12 13//13 14//14 15//15 16//16 17//17 18//18 19//19 20//20 21//21 22//22 23//23 24//24 9//9
f 10//10 46//46 45//45 11//11
f 11//11 86//86 85//85 12//12
f 12//12 54//54 53//53 13//13
f 13//13 53//53 6//6
f 14//14 94//94 93//93 15//15
f 15//15 90//90 89//89 16//16
f 16//16 58//58 57//57 17//17
f 17//17 82//82 81//81 18//18
f 18//18 70//70 69//69 19//19
f 19//19 66//66 65//65 20//20
f 20//20 50//50 49//49 21//21
f 21//21 78//78 77//77 22//22
f 22//22 62//62 61//61 23//23
f 23//23 74//74 73//73 24//24
f 24//24 26//26 25//25 9//9
f 26//26 27//27 28//28 25//25
f 26//26 73//73 76//76 27//27
f 27//27 31//31 30//30 28//28
f 28//28 30//30 3//3
f 29//29 47//47 4//4
f 30//30 31//31 32//32 33//33 34//34 35//35 36//36 37//37 38//38 39//39 40//40 41//41 42//42 43//43 44//44 29//29
f 31//31 76//76 75//75 32//32
f 32//32 64//64 63//63 33//33
f 33//33 80//80 79//79 34//34
f 34//34 52//52 51//51 35//35
f 35//35 68//68 67//67 36//36
f 36//36 72//72 71//71 37//37
f 37//37 84//84 83//83 38//38
f 38//38 60//60 59//59 39//39
f 39//39 92//92 91//91 40//40
f 40//40 96//96 95//95 41//41
f 41//41 95//95 8//8
f 42//42 56//56 55//55 43//43
f 43//43 88//88 87//87 44//44
f 44//44 48//48 47//47 29//29
f 45//45 86//86 11//11
f 46//46 47//47 48//48 45//45
f 48//48 87//87 86//86 45//45
f 49//49 78//78 21//21
f 50//50 51//51 52//52 49//49
f 50//50 65//65 68//68 51//51
f 51//51 68//68 35//35
f 52//52 79//79 78//78 49//49
f 54//54 55//55 56//56 53//53
f 54//54 85//85 88//88 55//55
f 55//55 88//88 43//43
f 56//56 42//42 7//7
f 57//57 82//82 17//17
f 58//58 59//59 60//60 57//57
f 58//58 89//89 92//92 59//59
f 59//59 92//92 39//39
f 60//60 83//83 82//82 57//57
f 61//61 74//74 23//23
f 62//62 63//63 64//64 61//61
f 62//62 77//77 80//80 63//63
f 63//63 80//80 33//33
f 64//64 75//75 74//74 61//61
f 65//65 50//50 20//20
f 66//66 67//67 68//68 65//65
f 66//66 69//69 72//72 67//67
f 67//67 72//72 36//36
f 69//69 66//66 19//19
f 70//70 71//71 72//72 69//69
f 70//70 81//81 84//84 71//71
f 71//71 84//84 37//37
f 73//73 26//26 24//24
f 74//74 75//75 76//76 73//73
f 75//75 64//64 32//32
f 76//76 31//31 27//27
f 77//77 62//62 22//22
f 78//78 79//79 80//80 77//77
f 79//79 52//52 34//34
f 81//81 70//70 18//18
f 82//82 83//83 84//84 81//81
f 83//83 60//60 38//38
f 85//85 54//54 12//12
f 86//86 87//87 88//88 85//85
f 87//87 48//48 44//44
f 89//89 58//58 16//16
f 90//90 91//91 92//92 89//89
f 90//90 93//93 96//96 91//91
f 91//91 96//96 40//40
f 93//93 90//90 15//15
f 94//94 14//14 5//5
f 94//94 95//95 96//96 93//93
